<svg id="5b4731f2-0aa2-4ed4-a940-e3dcf49ec2a9" data-name="Capa 1" xmlns="http://www.w3.org/2000/svg" viewBox="0 0 67 67.63"><title>iconos de redes</title><rect x="-0.14" y="0.17" width="67.28" height="67.28" rx="33.64" ry="33.64" transform="translate(67.31 0.31) rotate(90)" fill="#c9c9c9"/><path d="M33.5,56.35A22.54,22.54,0,1,1,56,33.81,22.57,22.57,0,0,1,33.5,56.35Z" fill="#fff"/><path d="M33.5,12.91a20.9,20.9,0,1,1-20.9,20.9,20.92,20.92,0,0,1,20.9-20.9m0-3.28A24.18,24.18,0,1,0,57.68,33.81,24.18,24.18,0,0,0,33.5,9.63Z" fill="#00a69a"/><path d="M38.46,45.75a1.08,1.08,0,0,1-.66-.22L23.72,34.86a1.09,1.09,0,0,1,0-1.73L37.81,22.46a1.09,1.09,0,0,1,1.31,1.73L26.18,34l12.94,9.8a1.09,1.09,0,0,1-.66,2Z" fill="#4d4d4d"/><path d="M38.46,49.71h-.25l-.25,0-.24,0-.24,0-.24-.05L37,49.49l-.24-.08-.23-.09-.22-.1-.22-.11L35.87,49l-.21-.13-.2-.14-.2-.15-.19-.16-.18-.17-.17-.18-.16-.19-.15-.2-.14-.2-.13-.21L34,47l-.11-.22-.1-.23-.09-.23-.08-.23-.07-.24-.05-.24c0-.08,0-.16,0-.24l0-.25c0-.08,0-.16,0-.25s0-.16,0-.25,0-.17,0-.25,0-.16,0-.25l0-.24,0-.24.05-.24.07-.24.08-.24.09-.23.1-.22.11-.22.12-.22.13-.21.14-.2.15-.2.16-.19.17-.18.18-.17.19-.16.2-.15.2-.14.21-.13.22-.12.22-.11.22-.1.23-.09.24-.08.24-.07.24-.05.24,0,.24,0,.25,0h.5l.25,0,.25,0,.24,0,.24.05.24.07.23.08.23.09.23.1.22.11.21.12.21.13.2.14.2.15.19.16.18.17.17.18.16.19.15.2.14.2.13.21.12.22.11.22.1.22.09.23.08.24.07.24.05.24c0,.08,0,.16,0,.24l0,.24c0,.08,0,.17,0,.25s0,.17,0,.25,0,.17,0,.25,0,.17,0,.25l0,.25c0,.08,0,.16,0,.24l-.05.24-.07.24-.08.23-.09.23-.1.23-.11.22-.12.21-.13.21-.14.2-.15.2-.16.19-.17.18-.18.17-.19.16-.2.15-.2.14-.21.13-.21.12-.22.11-.23.1-.23.09-.23.08-.24.07-.24.05-.24,0-.25,0-.25,0Z" fill="#969696"/><path d="M24.38,39h-.25l-.25,0-.25,0-.24,0-.24-.05-.24-.07-.23-.08-.23-.09-.23-.1L22,38.44l-.21-.12-.21-.13-.2-.14-.2-.15L21,37.74l-.18-.17-.17-.18-.16-.19-.15-.2-.14-.2L20,36.59l-.12-.22-.11-.22-.1-.23-.09-.23-.08-.23-.07-.24L19.43,35c0-.08,0-.16,0-.24l0-.25c0-.08,0-.16,0-.25s0-.16,0-.25,0-.17,0-.25,0-.17,0-.25l0-.24c0-.08,0-.16,0-.24l.05-.24.07-.24.08-.24.09-.23.1-.23.11-.22.12-.22.13-.21.14-.2.15-.2.16-.19.17-.18.18-.17.19-.16.2-.15.2-.14.21-.13.21-.12.22-.11.23-.1.23-.09.23-.08.24-.07.24-.05.24,0,.25,0,.25,0h.5l.25,0,.24,0,.24,0,.24.05.24.07.24.08.23.09.23.1.22.11.22.12.21.13.2.14.2.15.19.16.18.17.17.18.16.19.15.2.14.2.13.21.12.22.11.22.1.23.09.23.08.24.07.24c0,.08,0,.16.06.24s0,.16,0,.24,0,.16,0,.24,0,.16,0,.25,0,.17,0,.25,0,.17,0,.25,0,.17,0,.25,0,.16,0,.25,0,.16,0,.24,0,.16-.06.24l-.07.24-.08.23-.09.23-.1.23-.11.22-.12.22-.13.21-.14.2-.15.2-.16.19-.17.18-.18.17-.19.16-.2.15-.2.14-.21.13-.22.12-.22.11-.23.1-.23.09-.24.08-.24.07-.24.05-.24,0-.24,0-.25,0Z" fill="#969696"/><path d="M38.46,28.37h-.25l-.25,0-.24,0-.24,0-.24-.05L37,28.15l-.24-.08L36.53,28l-.22-.1-.22-.11-.22-.12-.21-.13-.2-.14-.2-.15-.19-.16-.18-.17-.17-.18-.16-.19-.15-.2-.14-.2-.13-.21L34,25.71l-.11-.22-.1-.23L33.72,25l-.08-.23-.07-.24-.05-.24c0-.08,0-.16,0-.24l0-.25c0-.08,0-.16,0-.25s0-.16,0-.25,0-.17,0-.25,0-.16,0-.25l0-.24c0-.08,0-.16,0-.24l.05-.24.07-.24.08-.24.09-.23.1-.23L34,21l.12-.22.13-.21.14-.2.15-.2.16-.19.17-.18.18-.17.19-.16.2-.15.2-.14.21-.13.22-.12.22-.11.22-.1.23-.09.24-.08.24-.07.24-.05.24,0,.24,0,.25,0h.5l.25,0,.25,0,.24,0,.24.05.24.07.23.08.23.09.23.1.22.11.21.12.21.13.2.14.2.15.19.16.18.17.17.18.16.19.15.2.14.2.13.21.12.22.11.22.1.23.09.23.08.24.07.24.05.24c0,.08,0,.16,0,.24l0,.24c0,.08,0,.17,0,.25s0,.17,0,.25,0,.17,0,.25,0,.17,0,.25l0,.25c0,.08,0,.16,0,.24l-.05.24-.07.24-.08.23-.09.23-.1.23-.11.22-.12.22-.13.21-.14.2-.15.2-.16.19L42,26.9l-.18.17-.19.16-.2.15-.2.14-.21.13-.21.12-.22.11-.23.1-.23.09-.23.08-.24.07-.24.05-.24,0-.25,0-.25,0Z" fill="#969696"/></svg>